<?xml version="1.0" encoding="UTF-8" standalone="no"?>
<!-- Created with Inkscape (http://www.inkscape.org/) -->

<svg
   width="512"
   height="512"
   viewBox="0 0 135.46666 135.46667"
   version="1.1"
   id="svg5"
   inkscape:version="1.1.2 (0a00cf5339, 2022-02-04)"
   sodipodi:docname="Desktop-Icon.svg"
   xmlns:inkscape="http://www.inkscape.org/namespaces/inkscape"
   xmlns:sodipodi="http://sodipodi.sourceforge.net/DTD/sodipodi-0.dtd"
   xmlns="http://www.w3.org/2000/svg"
   xmlns:svg="http://www.w3.org/2000/svg">
  <sodipodi:namedview
     id="namedview7"
     pagecolor="#ffffff"
     bordercolor="#666666"
     borderopacity="1.0"
     inkscape:pageshadow="2"
     inkscape:pageopacity="0.0"
     inkscape:pagecheckerboard="true"
     inkscape:document-units="mm"
     showgrid="true"
     units="px"
     width="512px"
     showborder="true"
     inkscape:showpageshadow="false"
     inkscape:snap-object-midpoints="true"
     inkscape:snap-center="true"
     inkscape:snap-text-baseline="true"
     inkscape:object-paths="true"
     inkscape:snap-intersection-paths="true"
     inkscape:snap-smooth-nodes="true"
     inkscape:snap-midpoints="true"
     inkscape:snap-page="true"
     inkscape:zoom="1.0469406"
     inkscape:cx="110.79902"
     inkscape:cy="285.59404"
     inkscape:window-width="1920"
     inkscape:window-height="1050"
     inkscape:window-x="3840"
     inkscape:window-y="0"
     inkscape:window-maximized="1"
     inkscape:current-layer="layer1">
    <inkscape:grid
       type="xygrid"
       id="grid1220"
       color="#f6b93b"
       opacity="0.1254902"
       empcolor="#f6b93b"
       empopacity="0.25098039" />
  </sodipodi:namedview>
  <defs
     id="defs2" />
  <g
     inkscape:label="Layer 1"
     inkscape:groupmode="layer"
     id="layer1">
    <rect
       style="fill:#4060a3;fill-opacity:1;stroke-width:0.264913"
       id="rect846"
       width="135.46649"
       height="135.45158"
       x="0.00017496744"
       y="0.015082804" />
    <rect
       style="fill:none;fill-opacity:1;stroke:#f6b93b;stroke-width:9.3404;stroke-linecap:butt;stroke-linejoin:miter;stroke-miterlimit:4;stroke-dasharray:none;stroke-opacity:1"
       id="rect1040"
       width="123.82484"
       height="123.81122"
       x="5.8209968"
       y="5.8352633"
       ry="22.200602" />
    <circle
       style="fill:none;fill-opacity:1;stroke:#f6b93b;stroke-width:9.3404;stroke-miterlimit:4;stroke-dasharray:none;stroke-opacity:1"
       id="path1244"
       cx="36.793259"
       cy="42.630238"
       r="17.513245" />
    <path
       style="fill:none;stroke:#f6b93b;stroke-width:9.3404;stroke-linecap:butt;stroke-linejoin:miter;stroke-miterlimit:4;stroke-dasharray:none;stroke-opacity:1"
       d="M 60.144251,124.35871 74.738621,89.332223 80.57637,98.088846 92.251866,71.818978 115.60286,124.35871 Z"
       id="path1279" />
    <path
       d="M 0,0 V 135.46666 M 2.6458332,0 V 135.46666 M 5.2916664,0 V 135.46666 M 7.9374996,0 V 135.46666 M 10.583333,0 V 135.46666 M 13.229166,0 V 135.46666 M 15.874999,0 V 135.46666 M 18.520832,0 V 135.46666 M 21.166666,0 V 135.46666 M 23.812499,0 V 135.46666 M 26.458332,0 V 135.46666 M 29.104165,0 V 135.46666 M 31.749998,0 V 135.46666 M 34.395832,0 V 135.46666 M 37.041665,0 V 135.46666 M 39.687498,0 V 135.46666 M 42.333331,0 V 135.46666 M 44.979164,0 V 135.46666 M 47.624998,0 V 135.46666 M 50.270831,0 V 135.46666 M 52.916664,0 V 135.46666 M 55.562497,0 V 135.46666 M 58.20833,0 V 135.46666 M 60.854164,0 V 135.46666 M 63.499997,0 V 135.46666 M 66.14583,0 V 135.46666 M 68.791663,0 V 135.46666 M 71.437496,0 V 135.46666 M 74.08333,0 V 135.46666 M 76.729163,0 V 135.46666 M 79.374996,0 V 135.46666 M 82.020829,0 V 135.46666 M 84.666662,0 V 135.46666 M 87.312496,0 V 135.46666 M 89.958329,0 V 135.46666 M 92.604162,0 V 135.46666 M 95.249995,0 V 135.46666 M 97.895829,0 V 135.46666 M 100.54166,0 V 135.46666 M 103.18749,0 V 135.46666 M 105.83333,0 V 135.46666 M 108.47916,0 V 135.46666 M 111.12499,0 V 135.46666 M 113.77083,0 V 135.46666 M 116.41666,0 V 135.46666 M 119.06249,0 V 135.46666 M 121.70833,0 V 135.46666 M 124.35416,0 V 135.46666 M 126.99999,0 V 135.46666 M 129.64583,0 V 135.46666 M 132.29166,0 V 135.46666 M 134.93749,0 V 135.46666 M 0,0 H 135.46666 M 0,2.6458332 H 135.46666 M 0,5.2916664 H 135.46666 M 0,7.9374996 H 135.46666 M 0,10.583333 H 135.46666 M 0,13.229166 H 135.46666 M 0,15.874999 H 135.46666 M 0,18.520832 H 135.46666 M 0,21.166666 H 135.46666 M 0,23.812499 H 135.46666 M 0,26.458332 H 135.46666 M 0,29.104165 H 135.46666 M 0,31.749998 H 135.46666 M 0,34.395832 H 135.46666 M 0,37.041665 H 135.46666 M 0,39.687498 H 135.46666 M 0,42.333331 H 135.46666 M 0,44.979164 H 135.46666 M 0,47.624998 H 135.46666 M 0,50.270831 H 135.46666 M 0,52.916664 H 135.46666 M 0,55.562497 H 135.46666 M 0,58.20833 H 135.46666 M 0,60.854164 H 135.46666 M 0,63.499997 H 135.46666 M 0,66.14583 H 135.46666 M 0,68.791663 H 135.46666 M 0,71.437496 H 135.46666 M 0,74.08333 H 135.46666 M 0,76.729163 H 135.46666 M 0,79.374996 H 135.46666 M 0,82.020829 H 135.46666 M 0,84.666662 H 135.46666 M 0,87.312496 H 135.46666 M 0,89.958329 H 135.46666 M 0,92.604162 H 135.46666 M 0,95.249995 H 135.46666 M 0,97.895829 H 135.46666 M 0,100.54166 H 135.46666 M 0,103.18749 H 135.46666 M 0,105.83333 H 135.46666 M 0,108.47916 H 135.46666 M 0,111.12499 H 135.46666 M 0,113.77083 H 135.46666 M 0,116.41666 H 135.46666 M 0,119.06249 H 135.46666 M 0,121.70833 H 135.46666 M 0,124.35416 H 135.46666 M 0,126.99999 H 135.46666 M 0,129.64583 H 135.46666 M 0,132.29166 H 135.46666 M 0,134.93749 h 135.46666"
       style="fill:none;stroke:#4060a3;stroke-width:0.264583px;stroke-opacity:0.73725492"
       id="path1763" />
  </g>
</svg>
